<svg xmlns="http://www.w3.org/2000/svg" width="304" height="69" viewBox="0 0 304 69"><defs><clipPath id="ml88a"><path fill="#fff" d="M291.128.897c9.355 2.507 14.91 12.107 12.409 21.442-2.502 9.336-12.113 14.871-21.467 12.365-9.355-2.506-14.91-12.106-12.41-21.442C272.163 3.926 281.775-1.61 291.129.897z"/></clipPath><radialGradient id="ml88b" cx="286.14" cy="35.31" r="35.03" gradientUnits="userSpaceOnUse"><stop offset=".52" stop-color="#ff2868" stop-opacity="0"/><stop offset="1" stop-color="#ff2868" stop-opacity=".35"/></radialGradient><clipPath id="ml88c"><path fill="#fff" d="M.661 67.594L287 16.999"/></clipPath></defs><g><g><path fill="none" stroke="#ff2868" stroke-linecap="round" stroke-linejoin="round" stroke-miterlimit="20" stroke-width="2" d="M291.128.897c9.355 2.507 14.91 12.107 12.409 21.442-2.502 9.336-12.113 14.871-21.467 12.365-9.355-2.506-14.91-12.106-12.41-21.442C272.163 3.926 281.775-1.61 291.129.897z" clip-path="url(&quot;#ml88a&quot;)"/></g><g><path fill="#ff2868" d="M287.68 15.276a2.33 2.33 0 0 1 1.651 2.852 2.33 2.33 0 0 1-2.856 1.645 2.33 2.33 0 0 1-1.65-2.852 2.33 2.33 0 0 1 2.856-1.645z"/></g><g><path fill="#fff" d="M291.128.897c9.355 2.507 14.91 12.107 12.409 21.442-2.502 9.336-12.113 14.871-21.467 12.365-9.355-2.506-14.91-12.106-12.41-21.442C272.163 3.926 281.775-1.61 291.129.897z"/><path fill="url(#ml88b)" d="M291.128.897c9.355 2.507 14.91 12.107 12.409 21.442-2.502 9.336-12.113 14.871-21.467 12.365-9.355-2.506-14.91-12.106-12.41-21.442C272.163 3.926 281.775-1.61 291.129.897z"/></g><g><path fill="#25365d" d="M.661 67.594L287 16.999"/><path fill="none" stroke="#ff2868" stroke-dasharray="4 2" stroke-miterlimit="20" stroke-width="2" d="M.661 67.594L287 16.999" clip-path="url(&quot;#ml88c&quot;)"/></g></g></svg>