<svg xmlns="http://www.w3.org/2000/svg" width="318" height="97" viewBox="0 0 318 97"><defs><clipPath id="7cjka"><path fill="#fff" d="M305.026 96.417c9.338-2.5 14.884-12.072 12.387-21.38s-12.092-14.828-21.43-12.329c-9.339 2.5-14.885 12.072-12.388 21.38s12.092 14.828 21.43 12.329z"/></clipPath><clipPath id="7cjkb"><path fill="#fff" d="M301.584 82.08a2.323 2.323 0 0 0 1.648-2.844 2.327 2.327 0 0 0-2.851-1.64 2.323 2.323 0 0 0-1.648 2.844 2.327 2.327 0 0 0 2.85 1.64z"/></clipPath><radialGradient id="7cjkc" cx="300.01" cy="97.02" r="34.92" gradientUnits="userSpaceOnUse"><stop offset=".52" stop-color="#ff2868" stop-opacity="0"/><stop offset="1" stop-color="#ff2868" stop-opacity=".35"/></radialGradient><clipPath id="7cjkd"><path fill="#fff" d="M.005.965L301 79"/></clipPath></defs><g><g opacity="-1"><g><path fill="none" stroke="#fff" stroke-linecap="round" stroke-linejoin="round" stroke-miterlimit="20" stroke-width="2" d="M305.026 96.417c9.338-2.5 14.884-12.072 12.387-21.38s-12.092-14.828-21.43-12.329c-9.339 2.5-14.885 12.072-12.388 21.38s12.092 14.828 21.43 12.329z" clip-path="url(&quot;#7cjka&quot;)"/></g><g><path fill="#cecece" d="M301.584 82.08a2.323 2.323 0 0 0 1.648-2.844 2.327 2.327 0 0 0-2.851-1.64 2.323 2.323 0 0 0-1.648 2.844 2.327 2.327 0 0 0 2.85 1.64z"/><path fill="none" stroke="#cecece" stroke-miterlimit="20" stroke-width="4" d="M301.584 82.08a2.323 2.323 0 0 0 1.648-2.844 2.327 2.327 0 0 0-2.851-1.64 2.323 2.323 0 0 0-1.648 2.844 2.327 2.327 0 0 0 2.85 1.64z" clip-path="url(&quot;#7cjkb&quot;)"/></g><g><path fill="#fff" d="M305.026 96.417c9.338-2.5 14.884-12.072 12.387-21.38s-12.092-14.828-21.43-12.329c-9.339 2.5-14.885 12.072-12.388 21.38s12.092 14.828 21.43 12.329z"/><path fill="url(#7cjkc)" d="M305.026 96.417c9.338-2.5 14.884-12.072 12.387-21.38s-12.092-14.828-21.43-12.329c-9.339 2.5-14.885 12.072-12.388 21.38s12.092 14.828 21.43 12.329z"/></g><g><path fill="#fff" d="M.005.965L301 79"/><path fill="none" stroke="#cecece" stroke-dasharray="4 2" stroke-miterlimit="20" stroke-width="2" d="M.005.965L301 79" clip-path="url(&quot;#7cjkd&quot;)"/></g></g></g></svg>