<svg xmlns="http://www.w3.org/2000/svg" width="318" height="97" viewBox="0 0 318 97"><defs><clipPath id="4jeea"><path fill="#fff" d="M12.968 96.026C3.634 93.525-1.91 83.944.587 74.627c2.496-9.316 12.085-14.842 21.419-12.34 9.333 2.502 14.877 12.082 12.38 21.399-2.495 9.317-12.085 14.842-21.418 12.34z"/></clipPath><clipPath id="4jeeb"><path fill="#fff" d="M16.407 81.676a2.326 2.326 0 0 1-1.647-2.847 2.325 2.325 0 0 1 2.85-1.64 2.325 2.325 0 0 1 1.647 2.846 2.326 2.326 0 0 1-2.85 1.641z"/></clipPath><radialGradient id="4jeec" cx="17.98" cy="96.63" r="34.96" gradientUnits="userSpaceOnUse"><stop offset=".52" stop-color="#ff2868" stop-opacity="0"/><stop offset="1" stop-color="#ff2868" stop-opacity=".35"/></radialGradient><clipPath id="4jeed"><path fill="#fff" d="M317.828.488L16.991 78.593"/></clipPath></defs><g><g opacity="-1"><g><path fill="none" stroke="#fff" stroke-linecap="round" stroke-linejoin="round" stroke-miterlimit="20" stroke-width="2" d="M12.968 96.026C3.634 93.525-1.91 83.944.587 74.627c2.496-9.316 12.085-14.842 21.419-12.34 9.333 2.502 14.877 12.082 12.38 21.399-2.495 9.317-12.085 14.842-21.418 12.34z" clip-path="url(&quot;#4jeea&quot;)"/></g><g><path fill="#cecece" d="M16.407 81.676a2.326 2.326 0 0 1-1.647-2.847 2.325 2.325 0 0 1 2.85-1.64 2.325 2.325 0 0 1 1.647 2.846 2.326 2.326 0 0 1-2.85 1.641z"/><path fill="none" stroke="#cecece" stroke-miterlimit="20" stroke-width="4" d="M16.407 81.676a2.326 2.326 0 0 1-1.647-2.847 2.325 2.325 0 0 1 2.85-1.64 2.325 2.325 0 0 1 1.647 2.846 2.326 2.326 0 0 1-2.85 1.641z" clip-path="url(&quot;#4jeeb&quot;)"/></g><g><path fill="#fff" d="M12.968 96.026C3.634 93.525-1.91 83.944.587 74.627c2.496-9.316 12.085-14.842 21.419-12.34 9.333 2.502 14.877 12.082 12.38 21.399-2.495 9.317-12.085 14.842-21.418 12.34z"/><path fill="url(#4jeec)" d="M12.968 96.026C3.634 93.525-1.91 83.944.587 74.627c2.496-9.316 12.085-14.842 21.419-12.34 9.333 2.502 14.877 12.082 12.38 21.399-2.495 9.317-12.085 14.842-21.418 12.34z"/></g><g><path fill="#fff" d="M317.828.488L16.991 78.593"/><path fill="none" stroke="#cecece" stroke-dasharray="4 2" stroke-miterlimit="20" stroke-width="2" d="M317.828.488L16.991 78.593" clip-path="url(&quot;#4jeed&quot;)"/></g></g></g></svg>