<svg xmlns="http://www.w3.org/2000/svg" width="310" height="40" viewBox="0 0 310 40"><defs><clipPath id="yfwca"><path fill="#fff" d="M13.84.57C4.492 3.077-1.06 12.686 1.44 22.031c2.5 9.343 12.106 14.885 21.456 12.376 9.35-2.51 14.902-12.118 12.402-21.462S23.19-1.939 13.84.569z"/></clipPath><radialGradient id="yfwcb" cx="17.9" cy="35.01" r="35.06" gradientUnits="userSpaceOnUse"><stop offset=".52" stop-color="#ff2868" stop-opacity="0"/><stop offset="1" stop-color="#ff2868" stop-opacity=".35"/></radialGradient><clipPath id="yfwcc"><path fill="#fff" d="M309.172 39.342L18 18"/></clipPath></defs><g><g opacity="-1"><g><path fill="none" stroke="#ff2868" stroke-linecap="round" stroke-linejoin="round" stroke-miterlimit="20" stroke-width="2" d="M13.84.57C4.492 3.077-1.06 12.686 1.44 22.031c2.5 9.343 12.106 14.885 21.456 12.376 9.35-2.51 14.902-12.118 12.402-21.462S23.19-1.939 13.84.569z" clip-path="url(&quot;#yfwca&quot;)"/></g><g><path fill="#ff2868" d="M17.287 14.962a2.33 2.33 0 1 0 1.204 4.502 2.333 2.333 0 0 0 1.65-2.856 2.328 2.328 0 0 0-2.854-1.646z"/></g><g><path fill="#fff" d="M13.84.57C4.492 3.077-1.06 12.686 1.44 22.031c2.5 9.343 12.106 14.885 21.456 12.376 9.35-2.51 14.902-12.118 12.402-21.462S23.19-1.939 13.84.569z"/><path fill="url(#yfwcb)" d="M13.84.57C4.492 3.077-1.06 12.686 1.44 22.031c2.5 9.343 12.106 14.885 21.456 12.376 9.35-2.51 14.902-12.118 12.402-21.462S23.19-1.939 13.84.569z"/></g><g><path fill="#25365d" d="M309.172 39.342L18 18"/><path fill="none" stroke="#ff2868" stroke-dasharray="4 2" stroke-miterlimit="20" stroke-width="2" d="M309.172 39.342L18 18" clip-path="url(&quot;#yfwcc&quot;)"/></g></g></g></svg>